<svg width="250" height="114" viewBox="0 0 250 114" fill="none" xmlns="http://www.w3.org/2000/svg">
<path d="M15.0124 52.8813C12.1329 52.8813 9.4537 52.3558 6.97482 51.3055C4.49665 50.2546 2.17192 48.4224 -0.00012207 45.8076L6.08983 39.5734C7.74265 41.1611 9.35924 42.3055 10.941 43.0059C12.5221 43.7063 14.1629 44.0562 15.8626 44.0562C16.7121 44.0562 17.4202 43.8813 17.987 43.5307C18.5531 43.1808 18.8365 42.7488 18.8365 42.2352C18.8365 41.7681 18.6597 41.3711 18.3052 41.0445C17.9515 40.7178 17.2434 40.3904 16.1808 40.0637C15.1189 39.7371 13.5726 39.3169 11.5426 38.8034C7.81295 37.869 5.07484 36.5265 3.32826 34.7758C1.58168 33.0244 0.708013 30.725 0.708013 27.877C0.708013 25.7758 1.27482 23.8494 2.40772 22.098C3.54062 20.3473 5.16929 18.9465 7.29374 17.8955C9.41819 16.8453 11.9205 16.3198 14.8 16.3198C18.2463 16.3198 21.1733 16.9506 23.5812 18.211C25.989 19.472 27.9949 20.9895 29.6001 22.764L22.873 28.7172C21.7401 27.7365 20.4062 26.9426 18.872 26.3357C17.3378 25.7287 15.6736 25.4252 13.8795 25.4252C12.9355 25.4252 12.1563 25.577 11.5426 25.8804C10.9289 26.1839 10.6221 26.616 10.6221 27.1766C10.6221 27.6901 11.0355 28.1454 11.8616 28.5423C12.6876 28.9392 14.3987 29.4408 16.9955 30.0478C21.2912 31.0756 24.4072 32.4877 26.3428 34.2855C28.2783 36.0832 29.2464 38.4999 29.2464 41.5348C29.2464 43.7759 28.6441 45.7486 27.4409 47.4529C26.2369 49.1572 24.5607 50.4885 22.4128 51.4453C20.2649 52.4029 17.7981 52.8813 15.0124 52.8813Z" fill="#59A9FE"/>
<path d="M51.6241 52.6711C48.6026 52.6711 45.9823 51.9939 43.7634 50.6401C41.5445 49.2857 39.8214 47.2779 38.594 44.6167C37.3666 41.9548 36.753 38.6164 36.753 34.6008C36.753 30.8648 37.3787 27.6549 38.6295 24.9699C39.8803 22.2848 41.6276 20.2074 43.87 18.7364C46.1123 17.2653 48.7205 16.5297 51.6944 16.5297C54.858 16.5297 57.6317 17.3123 60.0154 18.8762C62.3998 20.4407 64.2643 22.5771 65.6095 25.2853C66.9555 27.9935 67.6281 31.0987 67.6281 34.6008C67.6281 38.1029 66.9434 41.2193 65.574 43.9514C64.2053 46.6828 62.3053 48.8192 59.874 50.3598C57.4427 51.9005 54.6925 52.6711 51.6241 52.6711ZM31.9373 65.0686V17.4402H40.435L43.4097 26.8259H42.7719V41.6745H43.4097V65.0686H31.9373ZM49.4286 41.7448C51.2697 41.7448 52.816 41.0795 54.0668 39.7489C55.3183 38.4176 55.9433 36.702 55.9433 34.6008C55.9433 32.5459 55.3183 30.8303 54.0668 29.4527C52.816 28.075 51.2697 27.3865 49.4286 27.3865C47.5876 27.3865 46.0299 28.075 44.755 29.4527C43.48 30.8303 42.8429 32.5459 42.8429 34.6008C42.8429 36.702 43.48 38.4176 44.755 39.7489C46.0299 41.0795 47.5876 41.7448 49.4286 41.7448Z" fill="#59A9FE"/>
<path d="M85.4022 52.3908C81.909 52.3908 78.8519 51.6672 76.2317 50.22C73.6115 48.7721 71.5702 46.7179 70.1063 44.0561C68.6431 41.3949 67.9115 38.2427 67.9115 34.6008C67.9115 31.0987 68.6431 27.9935 70.1063 25.2853C71.5702 22.5771 73.6115 20.4407 76.2317 18.8762C78.8519 17.3123 81.909 16.5297 85.4022 16.5297C89.0374 16.5297 92.1534 17.3468 94.7495 18.9815C97.3462 20.6156 99.3528 22.7752 100.769 25.4602C102.185 28.1453 102.894 31.1451 102.894 34.4603C102.894 35.2078 102.87 35.885 102.823 36.492C102.776 37.099 102.705 37.5893 102.61 37.9624H76.4796V30.2578H93.7586L92.7671 32.7798C92.7671 30.5851 92.1768 28.7874 90.9963 27.3865C89.8166 25.9857 87.9989 25.2853 85.5442 25.2853C83.2777 25.2853 81.4842 25.9386 80.1617 27.246C78.8399 28.5534 78.1793 30.3048 78.1793 32.4995V36.3515C78.1793 38.733 78.8875 40.5659 80.3038 41.8501C81.7201 43.1337 83.7025 43.7758 86.2524 43.7758C88.2823 43.7758 89.8989 43.3908 91.1029 42.6201C92.3068 41.8502 93.3097 40.8575 94.1123 39.6435L101.761 43.7062C100.297 46.3674 98.1488 48.4806 95.3162 50.0444C92.4836 51.6089 89.1787 52.3908 85.4022 52.3908Z" fill="#59A9FE"/>
<path d="M116.277 52.1105C114.389 52.1105 112.619 51.7487 110.967 51.0251C109.314 50.3015 107.981 49.1227 106.966 47.4879C105.951 45.8538 105.443 43.6823 105.443 40.9741V4.06268H116.844V36.9816C116.844 38.7562 117.139 39.8887 117.729 40.379C118.319 40.8694 119.133 41.1146 120.172 41.1146V51.8309C119.747 51.9244 119.145 51.9939 118.366 52.041C117.587 52.0873 116.891 52.1105 116.277 52.1105Z" fill="#59A9FE"/>
<path d="M133.839 52.1105C131.951 52.1105 130.18 51.7487 128.528 51.0251C126.876 50.3015 125.542 49.1227 124.527 47.4879C123.512 45.8538 123.004 43.6823 123.004 40.9741V4.06268H134.406V36.9816C134.406 38.7562 134.7 39.8887 135.291 40.379C135.881 40.8694 136.696 41.1146 137.734 41.1146V51.8309C137.309 51.9244 136.707 51.9939 135.928 52.041C135.149 52.0873 134.453 52.1105 133.839 52.1105Z" fill="#59A9FE"/>
<path d="M152.18 51.7607H140.637V17.4402H152.18V51.7607ZM139.788 6.58408C139.788 4.57626 140.401 2.9773 141.629 1.78652C142.856 0.595741 144.461 0 146.444 0C148.474 0 150.08 0.595741 151.259 1.78652C152.44 2.9773 153.03 4.57626 153.03 6.58408C153.03 8.49846 152.44 10.051 151.259 11.2418C150.08 12.4326 148.474 13.0276 146.444 13.0276C144.461 13.0276 142.856 12.4326 141.629 11.2418C140.401 10.051 139.788 8.49846 139.788 6.58408Z" fill="#59A9FE"/>
<path d="M178.736 16.5297C181.048 16.5297 182.937 16.9266 184.401 17.7205C185.864 18.5143 186.997 19.5766 187.8 20.9079C188.602 22.2384 189.157 23.744 189.464 25.4251C189.771 27.1062 189.924 28.8569 189.924 30.6786V51.7607H178.452V32.0092C178.452 30.2346 178.169 29.067 177.602 28.5071C177.036 27.9465 176.21 27.6662 175.124 27.6662C174.321 27.6662 173.472 27.8186 172.575 28.1221C171.678 28.4256 170.793 28.8689 169.919 29.4527C169.045 30.0365 168.184 30.725 167.334 31.5188L164.856 25.8452H168.397V51.7607H156.924V17.4402H165.422L167.689 24.5146L163.51 24.0945C164.691 22.7871 166.071 21.5612 167.653 20.4175C169.234 19.2731 170.957 18.3394 172.823 17.6158C174.687 16.8915 176.658 16.5297 178.736 16.5297Z" fill="#59A9FE"/>
<path d="M209.257 65.8386C207.416 65.8386 205.515 65.559 203.556 64.9984C201.597 64.4384 199.779 63.516 198.103 62.2318C196.428 60.9476 195.07 59.2081 194.032 57.0135L193.394 55.7531L201.538 51.7607C202.671 53.4882 203.816 54.726 204.972 55.4728C206.129 56.2196 207.605 56.5933 209.398 56.5933C211.334 56.5933 212.927 55.9751 214.178 54.7373C215.429 53.5001 216.055 51.6441 216.055 49.1691V39.2937H216.763V26.7557H216.055L219.029 17.4402H227.527V46.6477C227.527 50.7097 226.818 54.1654 225.402 57.0135C223.986 59.8622 221.92 62.045 219.206 63.5624C216.492 65.0799 213.175 65.8386 209.257 65.8386ZM207.699 50.0093C204.63 50.0093 201.892 49.2976 199.484 47.8736C197.077 46.4489 195.188 44.4762 193.819 41.9548C192.45 39.4335 191.765 36.5615 191.765 33.3397C191.765 30.118 192.438 27.2348 193.784 24.6896C195.129 22.145 196.982 20.1484 199.343 18.7012C201.703 17.254 204.418 16.5297 207.486 16.5297C210.319 16.5297 212.797 17.2421 214.922 18.6661C217.046 20.0901 218.711 22.0516 219.914 24.5497C221.118 27.0479 221.72 29.9782 221.72 33.3397C221.72 36.8418 221.142 39.8423 219.985 42.3398C218.828 44.838 217.2 46.7411 215.099 48.0485C212.998 49.3559 210.531 50.0093 207.699 50.0093ZM210.036 40.0636C211.924 40.0636 213.494 39.4215 214.745 38.1373C215.996 36.8538 216.622 35.2541 216.622 33.3397C216.622 31.3319 215.996 29.6859 214.745 28.4017C213.494 27.1182 211.924 26.4761 210.036 26.4761C208.1 26.4761 206.506 27.1182 205.256 28.4017C204.005 29.6859 203.379 31.3319 203.379 33.3397C203.379 35.2541 204.005 36.8538 205.256 38.1373C206.506 39.4215 208.1 40.0636 210.036 40.0636Z" fill="#59A9FE"/>
<path d="M241.721 52.6008C240.304 52.6008 239.006 52.2509 237.826 51.5505C236.646 50.8501 235.713 49.9164 235.028 48.7488C234.344 47.5812 234.002 46.3209 234.002 44.9664C234.002 43.5656 234.344 42.2933 235.028 41.1496C235.713 40.0052 236.646 39.0828 237.826 38.3824C239.006 37.6819 240.281 37.3321 241.65 37.3321C243.16 37.3321 244.494 37.6819 245.651 38.3824C246.808 39.0828 247.728 40.0052 248.412 41.1496C249.097 42.2933 249.439 43.5656 249.439 44.9664C249.439 46.3209 249.097 47.5812 248.412 48.7488C247.728 49.9164 246.808 50.8501 245.651 51.5505C244.494 52.2509 243.184 52.6008 241.721 52.6008Z" fill="#FE645A"/>
<path d="M15.0122 113.816C12.1328 113.816 9.45357 113.291 6.97469 112.241C4.49653 111.19 2.17179 109.357 -0.000244141 106.743L6.0897 100.508C7.74253 102.096 9.35912 103.24 10.9409 103.941C12.522 104.641 14.1627 104.991 15.8624 104.991C16.7119 104.991 17.4201 104.816 17.9869 104.466C18.553 104.116 18.8364 103.684 18.8364 103.17C18.8364 102.703 18.6595 102.306 18.3051 101.979C17.9514 101.653 17.2432 101.326 16.1807 100.999C15.1188 100.672 13.5725 100.252 11.5425 99.7384C7.81283 98.804 5.07471 97.4615 3.32813 95.7108C1.58155 93.9601 0.70789 91.66 0.70789 88.812C0.70789 86.7107 1.2747 84.7844 2.4076 83.033C3.54049 81.2823 5.16916 79.8815 7.29361 78.8312C9.41806 77.7802 11.9204 77.2548 14.7999 77.2548C18.2462 77.2548 21.1732 77.8856 23.5811 79.146C25.9889 80.407 27.9947 81.9245 29.6 83.699L22.8729 89.6522C21.74 88.6715 20.4061 87.8776 18.8719 87.2707C17.3377 86.6637 15.6735 86.3602 13.8793 86.3602C12.9354 86.3602 12.1562 86.5119 11.5425 86.8154C10.9288 87.1189 10.622 87.551 10.622 88.1116C10.622 88.6251 11.0354 89.0804 11.8614 89.4773C12.6875 89.8742 14.3985 90.3758 16.9953 90.9828C21.2911 92.0106 24.4071 93.4227 26.3426 95.2204C28.2781 97.0182 29.2463 99.4349 29.2463 102.47C29.2463 104.711 28.644 106.684 27.4407 108.389C26.2368 110.093 24.5605 111.424 22.4127 112.38C20.2648 113.338 17.798 113.816 15.0122 113.816Z" fill="#F2A531"/>
<path d="M47.7284 113.606C44.1876 113.606 41.0837 112.836 38.4166 111.295C35.7495 109.754 33.6599 107.606 32.1491 104.851C30.639 102.096 29.8833 98.9678 29.8833 95.4657C29.8833 92.0107 30.639 88.9287 32.1491 86.2205C33.6599 83.5123 35.7495 81.3759 38.4166 79.8113C41.0837 78.2475 44.1876 77.4649 47.7284 77.4649C51.7415 77.4649 55.1878 78.4225 58.0672 80.3368C60.9474 82.2512 63.0009 84.8197 64.2282 88.0414L53.9604 92.6641C53.3467 91.3567 52.5675 90.3408 51.6236 89.6172C50.6789 88.8936 49.4281 88.5318 47.8705 88.5318C46.0294 88.5318 44.4831 89.162 43.2316 90.423C41.9808 91.6833 41.355 93.3645 41.355 95.4657C41.355 97.6604 41.9808 99.3767 43.2316 100.614C44.4831 101.851 46.0294 102.47 47.8705 102.47C49.4281 102.47 50.6789 102.119 51.6236 101.419C52.5675 100.719 53.3467 99.7385 53.9604 98.4775L64.2282 102.96C63.0009 106.182 60.9353 108.762 58.0324 110.7C55.1288 112.638 51.6939 113.606 47.7284 113.606Z" fill="#F2A531"/>
<path d="M65.999 112.696V64.9977H77.4708V112.696H65.999ZM87.5262 112.696V92.9442C87.5262 91.1696 87.2428 90.0027 86.6767 89.4421C86.1099 88.8815 85.2839 88.6018 84.1978 88.6018C83.3952 88.6018 82.5457 88.7536 81.6487 89.0571C80.7516 89.3606 79.8665 89.8039 78.9929 90.3877C78.12 90.9715 77.2584 91.6599 76.4082 92.4538L72.5847 85.0295C73.7645 83.7221 75.1453 82.4962 76.7271 81.3525C78.3089 80.2081 80.0321 79.2744 81.8965 78.5508C83.7617 77.8272 85.732 77.4647 87.8096 77.4647C90.123 77.4647 92.0109 77.8616 93.4748 78.6555C94.938 79.4493 96.0716 80.5116 96.8735 81.8429C97.6761 83.1734 98.2309 84.679 98.5377 86.3601C98.8445 88.0412 98.998 89.7919 98.998 91.6136V112.696H87.5262Z" fill="#F2A531"/>
<path d="M119.181 113.606C115.546 113.606 112.359 112.836 109.62 111.295C106.882 109.754 104.734 107.629 103.177 104.921C101.618 102.213 100.84 99.1076 100.84 95.6055C100.84 92.0571 101.618 88.9287 103.177 86.2205C104.734 83.5123 106.882 81.3759 109.62 79.8113C112.359 78.2475 115.546 77.4649 119.181 77.4649C122.863 77.4649 126.085 78.2475 128.847 79.8113C131.609 81.3759 133.756 83.5123 135.291 86.2205C136.825 88.9287 137.592 92.0571 137.592 95.6055C137.592 99.1076 136.825 102.213 135.291 104.921C133.756 107.629 131.609 109.754 128.847 111.295C126.085 112.836 122.863 113.606 119.181 113.606ZM119.181 102.54C121.163 102.54 122.792 101.898 124.067 100.614C125.341 99.3296 125.979 97.6372 125.979 95.536C125.979 93.4347 125.341 91.7417 124.067 90.4581C122.792 89.1739 121.163 88.5318 119.181 88.5318C117.245 88.5318 115.64 89.1739 114.365 90.4581C113.091 91.7417 112.453 93.4347 112.453 95.536C112.453 97.5902 113.091 99.2713 114.365 100.579C115.64 101.886 117.245 102.54 119.181 102.54Z" fill="#F2A531"/>
<path d="M156.358 113.606C152.723 113.606 149.536 112.836 146.798 111.295C144.059 109.754 141.912 107.629 140.354 104.921C138.796 102.213 138.017 99.1076 138.017 95.6055C138.017 92.0571 138.796 88.9287 140.354 86.2205C141.912 83.5123 144.059 81.3759 146.798 79.8113C149.536 78.2475 152.723 77.4649 156.358 77.4649C160.04 77.4649 163.262 78.2475 166.024 79.8113C168.786 81.3759 170.934 83.5123 172.468 86.2205C174.002 88.9287 174.769 92.0571 174.769 95.6055C174.769 99.1076 174.002 102.213 172.468 104.921C170.934 107.629 168.786 109.754 166.024 111.295C163.262 112.836 160.04 113.606 156.358 113.606ZM156.358 102.54C158.34 102.54 159.969 101.898 161.244 100.614C162.518 99.3296 163.156 97.6372 163.156 95.536C163.156 93.4347 162.518 91.7417 161.244 90.4581C159.969 89.1739 158.34 88.5318 156.358 88.5318C154.422 88.5318 152.817 89.1739 151.542 90.4581C150.268 91.7417 149.63 93.4347 149.63 95.536C149.63 97.5902 150.268 99.2713 151.542 100.579C152.817 101.886 154.422 102.54 156.358 102.54Z" fill="#F2A531"/>
<path d="M187.728 113.046C185.84 113.046 184.07 112.684 182.418 111.96C180.765 111.237 179.432 110.058 178.417 108.423C177.402 106.789 176.894 104.617 176.894 101.909V64.9977H188.295V97.9173C188.295 99.6912 188.59 100.824 189.18 101.314C189.77 101.804 190.585 102.05 191.624 102.05V112.766C191.199 112.859 190.596 112.929 189.817 112.976C189.039 113.022 188.342 113.046 187.728 113.046Z" fill="#F2A531"/>
</svg>
