<svg width="448" height="66" viewBox="0 0 448 66" fill="none" xmlns="http://www.w3.org/2000/svg">
<path d="M15.0124 52.8813C12.1329 52.8813 9.4537 52.3558 6.97482 51.3055C4.49665 50.2546 2.17192 48.4224 -0.00012207 45.8076L6.08983 39.5734C7.74265 41.1611 9.35924 42.3055 10.941 43.0059C12.5221 43.7063 14.1629 44.0562 15.8626 44.0562C16.7121 44.0562 17.4202 43.8813 17.987 43.5307C18.5531 43.1808 18.8365 42.7488 18.8365 42.2352C18.8365 41.7681 18.6597 41.3711 18.3052 41.0445C17.9515 40.7178 17.2434 40.3904 16.1808 40.0637C15.1189 39.7371 13.5726 39.3169 11.5426 38.8034C7.81295 37.869 5.07484 36.5265 3.32826 34.7758C1.58168 33.0244 0.708013 30.725 0.708013 27.877C0.708013 25.7758 1.27482 23.8494 2.40772 22.098C3.54062 20.3473 5.16929 18.9465 7.29374 17.8955C9.41818 16.8453 11.9205 16.3198 14.8 16.3198C18.2463 16.3198 21.1733 16.9506 23.5812 18.211C25.989 19.472 27.9949 20.9895 29.6001 22.764L22.873 28.7172C21.7401 27.7365 20.4062 26.9426 18.872 26.3357C17.3378 25.7287 15.6736 25.4252 13.8795 25.4252C12.9355 25.4252 12.1563 25.577 11.5426 25.8804C10.9289 26.1839 10.6221 26.616 10.6221 27.1766C10.6221 27.6901 11.0355 28.1454 11.8615 28.5423C12.6876 28.9392 14.3987 29.4408 16.9955 30.0478C21.2912 31.0756 24.4072 32.4877 26.3427 34.2855C28.2783 36.0832 29.2464 38.4999 29.2464 41.5348C29.2464 43.7759 28.6441 45.7486 27.4409 47.4529C26.2369 49.1572 24.5607 50.4885 22.4128 51.4453C20.2649 52.4029 17.7981 52.8813 15.0124 52.8813Z" fill="#59A9FE"/>
<path d="M51.6241 52.6711C48.6026 52.6711 45.9823 51.9939 43.7634 50.6401C41.5445 49.2857 39.8214 47.2779 38.594 44.6167C37.3666 41.9548 36.753 38.6164 36.753 34.6008C36.753 30.8648 37.3787 27.6549 38.6295 24.9699C39.8803 22.2848 41.6276 20.2074 43.87 18.7364C46.1123 17.2653 48.7205 16.5297 51.6944 16.5297C54.858 16.5297 57.6317 17.3123 60.0154 18.8762C62.3998 20.4407 64.2643 22.5771 65.6095 25.2853C66.9555 27.9935 67.6281 31.0987 67.6281 34.6008C67.6281 38.1029 66.9434 41.2193 65.574 43.9514C64.2053 46.6828 62.3053 48.8192 59.874 50.3598C57.4427 51.9005 54.6925 52.6711 51.6241 52.6711ZM31.9373 65.0686V17.4402H40.435L43.4097 26.8259H42.7719V41.6745H43.4097V65.0686H31.9373ZM49.4286 41.7448C51.2697 41.7448 52.816 41.0795 54.0668 39.7489C55.3183 38.4176 55.9433 36.702 55.9433 34.6008C55.9433 32.5459 55.3183 30.8303 54.0668 29.4527C52.816 28.075 51.2697 27.3865 49.4286 27.3865C47.5876 27.3865 46.0299 28.075 44.755 29.4527C43.48 30.8303 42.8429 32.5459 42.8429 34.6008C42.8429 36.702 43.48 38.4176 44.755 39.7489C46.0299 41.0795 47.5876 41.7448 49.4286 41.7448Z" fill="#59A9FE"/>
<path d="M85.4022 52.3908C81.909 52.3908 78.8519 51.6672 76.2317 50.22C73.6115 48.7721 71.5702 46.7179 70.1063 44.0561C68.6431 41.3949 67.9115 38.2427 67.9115 34.6008C67.9115 31.0987 68.6431 27.9935 70.1063 25.2853C71.5702 22.5771 73.6115 20.4407 76.2317 18.8762C78.8519 17.3123 81.909 16.5297 85.4022 16.5297C89.0374 16.5297 92.1534 17.3468 94.7495 18.9815C97.3462 20.6156 99.3528 22.7752 100.769 25.4602C102.185 28.1453 102.894 31.1451 102.894 34.4603C102.894 35.2078 102.87 35.885 102.823 36.492C102.776 37.099 102.705 37.5893 102.61 37.9624H76.4796V30.2578H93.7586L92.7671 32.7798C92.7671 30.5851 92.1768 28.7874 90.9963 27.3865C89.8166 25.9857 87.9989 25.2853 85.5442 25.2853C83.2777 25.2853 81.4842 25.9386 80.1617 27.246C78.8399 28.5534 78.1793 30.3048 78.1793 32.4995V36.3515C78.1793 38.733 78.8875 40.5659 80.3038 41.8501C81.7201 43.1337 83.7025 43.7758 86.2524 43.7758C88.2823 43.7758 89.8989 43.3908 91.1029 42.6201C92.3068 41.8502 93.3097 40.8575 94.1123 39.6435L101.761 43.7062C100.297 46.3674 98.1488 48.4806 95.3162 50.0444C92.4836 51.6089 89.1787 52.3908 85.4022 52.3908Z" fill="#59A9FE"/>
<path d="M116.277 52.1105C114.389 52.1105 112.619 51.7487 110.967 51.0251C109.314 50.3015 107.981 49.1227 106.966 47.4879C105.951 45.8538 105.443 43.6823 105.443 40.9741V4.06268H116.844V36.9816C116.844 38.7562 117.139 39.8887 117.729 40.379C118.319 40.8694 119.133 41.1146 120.172 41.1146V51.8309C119.747 51.9244 119.145 51.9939 118.366 52.041C117.587 52.0873 116.891 52.1105 116.277 52.1105Z" fill="#59A9FE"/>
<path d="M133.839 52.1105C131.951 52.1105 130.18 51.7487 128.528 51.0251C126.876 50.3015 125.542 49.1227 124.527 47.4879C123.512 45.8538 123.004 43.6823 123.004 40.9741V4.06268H134.406V36.9816C134.406 38.7562 134.7 39.8887 135.291 40.379C135.881 40.8694 136.696 41.1146 137.734 41.1146V51.8309C137.309 51.9244 136.707 51.9939 135.928 52.041C135.149 52.0873 134.453 52.1105 133.839 52.1105Z" fill="#59A9FE"/>
<path d="M152.18 51.7607H140.637V17.4402H152.18V51.7607ZM139.788 6.58408C139.788 4.57626 140.401 2.9773 141.629 1.78652C142.856 0.595741 144.461 0 146.444 0C148.474 0 150.08 0.595741 151.259 1.78652C152.44 2.9773 153.03 4.57626 153.03 6.58408C153.03 8.49846 152.44 10.051 151.259 11.2418C150.08 12.4326 148.474 13.0276 146.444 13.0276C144.461 13.0276 142.856 12.4326 141.629 11.2418C140.401 10.051 139.788 8.49846 139.788 6.58408Z" fill="#59A9FE"/>
<path d="M178.736 16.5297C181.048 16.5297 182.937 16.9266 184.401 17.7205C185.864 18.5143 186.997 19.5766 187.8 20.9079C188.602 22.2384 189.157 23.744 189.464 25.4251C189.771 27.1062 189.924 28.8569 189.924 30.6786V51.7607H178.452V32.0092C178.452 30.2346 178.169 29.067 177.602 28.5071C177.036 27.9465 176.21 27.6662 175.124 27.6662C174.321 27.6662 173.472 27.8186 172.575 28.1221C171.678 28.4256 170.793 28.8689 169.919 29.4527C169.045 30.0365 168.184 30.725 167.334 31.5188L164.856 25.8452H168.397V51.7607H156.924V17.4402H165.422L167.689 24.5146L163.51 24.0945C164.691 22.7871 166.071 21.5612 167.653 20.4175C169.234 19.2731 170.957 18.3394 172.823 17.6158C174.687 16.8915 176.658 16.5297 178.736 16.5297Z" fill="#59A9FE"/>
<path d="M209.257 65.8386C207.416 65.8386 205.515 65.559 203.556 64.9984C201.597 64.4384 199.779 63.516 198.103 62.2318C196.428 60.9476 195.07 59.2081 194.032 57.0135L193.394 55.7531L201.538 51.7607C202.671 53.4882 203.816 54.726 204.972 55.4728C206.129 56.2196 207.605 56.5933 209.398 56.5933C211.334 56.5933 212.927 55.9751 214.178 54.7373C215.429 53.5001 216.055 51.6441 216.055 49.1691V39.2937H216.763V26.7557H216.055L219.029 17.4402H227.527V46.6477C227.527 50.7097 226.818 54.1654 225.402 57.0135C223.986 59.8622 221.92 62.045 219.206 63.5624C216.492 65.0799 213.175 65.8386 209.257 65.8386ZM207.699 50.0093C204.63 50.0093 201.892 49.2976 199.484 47.8736C197.077 46.4489 195.188 44.4762 193.819 41.9548C192.45 39.4335 191.765 36.5615 191.765 33.3397C191.765 30.118 192.438 27.2348 193.784 24.6896C195.129 22.145 196.982 20.1484 199.343 18.7012C201.703 17.254 204.418 16.5297 207.486 16.5297C210.319 16.5297 212.797 17.2421 214.922 18.6661C217.046 20.0901 218.711 22.0516 219.914 24.5497C221.118 27.0479 221.72 29.9782 221.72 33.3397C221.72 36.8418 221.142 39.8423 219.985 42.3398C218.828 44.838 217.2 46.7411 215.099 48.0485C212.998 49.3559 210.531 50.0093 207.699 50.0093ZM210.036 40.0636C211.924 40.0636 213.494 39.4215 214.745 38.1373C215.996 36.8538 216.622 35.2541 216.622 33.3397C216.622 31.3319 215.996 29.6859 214.745 28.4017C213.494 27.1182 211.924 26.4761 210.036 26.4761C208.1 26.4761 206.506 27.1182 205.256 28.4017C204.005 29.6859 203.379 31.3319 203.379 33.3397C203.379 35.2541 204.005 36.8538 205.256 38.1373C206.506 39.4215 208.1 40.0636 210.036 40.0636Z" fill="#59A9FE"/>
<path d="M241.721 52.6008C240.304 52.6008 239.006 52.2509 237.826 51.5505C236.646 50.8501 235.713 49.9164 235.028 48.7488C234.344 47.5812 234.002 46.3209 234.002 44.9664C234.002 43.5656 234.344 42.2933 235.028 41.1496C235.713 40.0052 236.646 39.0828 237.826 38.3824C239.006 37.6819 240.281 37.3321 241.65 37.3321C243.16 37.3321 244.494 37.6819 245.651 38.3824C246.808 39.0828 247.728 40.0052 248.412 41.1496C249.097 42.2933 249.439 43.5656 249.439 44.9664C249.439 46.3209 249.097 47.5812 248.412 48.7488C247.728 49.9164 246.808 50.8501 245.651 51.5505C244.494 52.2509 243.184 52.6008 241.721 52.6008Z" fill="#FE645A"/>
<path d="M271.012 52.8186C268.133 52.8186 265.454 52.2931 262.975 51.2429C260.497 50.1926 258.172 48.3597 256 45.7449L262.09 39.5107C263.743 41.0984 265.359 42.2428 266.941 42.9432C268.522 43.6436 270.163 43.9935 271.863 43.9935C272.712 43.9935 273.42 43.8186 273.987 43.468C274.553 43.1182 274.837 42.6861 274.837 42.1725C274.837 41.7054 274.66 41.3084 274.305 40.9818C273.952 40.6551 273.243 40.3284 272.181 40.001C271.119 39.6744 269.573 39.2543 267.543 38.7407C263.813 37.8064 261.075 36.4638 259.328 34.7131C257.582 32.9624 256.708 30.6624 256.708 27.8143C256.708 25.7131 257.275 23.7868 258.408 22.0354C259.541 20.2847 261.169 18.8838 263.294 17.8335C265.418 16.7826 267.921 16.2571 270.8 16.2571C274.246 16.2571 277.173 16.8879 279.581 18.1483C281.989 19.4093 283.995 20.9268 285.6 22.7014L278.873 28.6546C277.74 27.6738 276.406 26.88 274.872 26.273C273.338 25.666 271.674 25.3625 269.88 25.3625C268.936 25.3625 268.156 25.5142 267.543 25.8177C266.929 26.1212 266.622 26.5533 266.622 27.1139C266.622 27.6274 267.036 28.0827 267.862 28.4796C268.688 28.8765 270.399 29.3781 272.996 29.9851C277.291 31.0129 280.407 32.425 282.343 34.2228C284.278 36.0205 285.246 38.4372 285.246 41.4721C285.246 43.7132 284.644 45.6866 283.441 47.3909C282.237 49.0952 280.561 50.4258 278.413 51.3827C276.265 52.3402 273.798 52.8186 271.012 52.8186Z" fill="#F2A531"/>
<path d="M303.728 52.6087C300.188 52.6087 297.084 51.838 294.417 50.2974C291.75 48.7567 289.66 46.6084 288.149 43.8538C286.639 41.0985 285.883 37.9701 285.883 34.4681C285.883 31.013 286.639 27.931 288.149 25.2228C289.66 22.5146 291.75 20.3782 294.417 18.8137C297.084 17.2498 300.188 16.4672 303.728 16.4672C307.742 16.4672 311.188 17.4248 314.067 19.3392C316.947 21.2535 319.001 23.822 320.228 27.0438L309.96 31.6664C309.347 30.359 308.568 29.3431 307.624 28.6195C306.679 27.8959 305.428 27.5341 303.871 27.5341C302.029 27.5341 300.483 28.1643 299.232 29.4253C297.981 30.6856 297.355 32.3668 297.355 34.4681C297.355 36.6627 297.981 38.379 299.232 39.6162C300.483 40.8533 302.029 41.4722 303.871 41.4722C305.428 41.4722 306.679 41.1217 307.624 40.4213C308.568 39.7215 309.347 38.7408 309.96 37.4798L320.228 41.9626C319.001 45.1844 316.935 47.7641 314.032 49.7023C311.129 51.6399 307.694 52.6087 303.728 52.6087Z" fill="#F2A531"/>
<path d="M321.999 51.698V4H333.471V51.698H321.999ZM343.526 51.698V31.9465C343.526 30.1719 343.243 29.005 342.677 28.4444C342.11 27.8838 341.284 27.6042 340.198 27.6042C339.395 27.6042 338.546 27.7559 337.649 28.0594C336.752 28.3629 335.867 28.8062 334.993 29.39C334.12 29.9738 333.259 30.6623 332.408 31.4561L328.585 24.0318C329.765 22.7244 331.145 21.4985 332.727 20.3548C334.309 19.2104 336.032 18.2767 337.897 17.5531C339.762 16.8295 341.732 16.467 343.81 16.467C346.123 16.467 348.011 16.864 349.475 17.6578C350.938 18.4517 352.072 19.5139 352.874 20.8452C353.676 22.1758 354.231 23.6813 354.538 25.3624C354.845 27.0436 354.998 28.7943 354.998 30.6159V51.698H343.526Z" fill="#F2A531"/>
<path d="M375.181 52.6087C371.546 52.6087 368.359 51.838 365.621 50.2974C362.882 48.7567 360.735 46.6316 359.177 43.9233C357.619 41.2151 356.84 38.1099 356.84 34.6079C356.84 31.0594 357.619 27.931 359.177 25.2228C360.735 22.5146 362.882 20.3782 365.621 18.8137C368.359 17.2498 371.546 16.4672 375.181 16.4672C378.863 16.4672 382.085 17.2498 384.847 18.8137C387.609 20.3782 389.757 22.5146 391.291 25.2228C392.825 27.931 393.592 31.0594 393.592 34.6079C393.592 38.1099 392.825 41.2151 391.291 43.9233C389.757 46.6316 387.609 48.7567 384.847 50.2974C382.085 51.838 378.863 52.6087 375.181 52.6087ZM375.181 41.5425C377.163 41.5425 378.792 40.9004 380.067 39.6162C381.341 38.3319 381.979 36.6396 381.979 34.5383C381.979 32.4371 381.341 30.744 380.067 29.4605C378.792 28.1762 377.163 27.5341 375.181 27.5341C373.245 27.5341 371.64 28.1762 370.365 29.4605C369.091 30.744 368.453 32.4371 368.453 34.5383C368.453 36.5925 369.091 38.2736 370.365 39.581C371.64 40.8884 373.245 41.5425 375.181 41.5425Z" fill="#F2A531"/>
<path d="M412.358 52.6087C408.723 52.6087 405.536 51.838 402.798 50.2974C400.06 48.7567 397.912 46.6316 396.354 43.9233C394.796 41.2151 394.017 38.1099 394.017 34.6079C394.017 31.0594 394.796 27.931 396.354 25.2228C397.912 22.5146 400.06 20.3782 402.798 18.8137C405.536 17.2498 408.723 16.4672 412.358 16.4672C416.04 16.4672 419.262 17.2498 422.024 18.8137C424.786 20.3782 426.934 22.5146 428.468 25.2228C430.002 27.931 430.769 31.0594 430.769 34.6079C430.769 38.1099 430.002 41.2151 428.468 43.9233C426.934 46.6316 424.786 48.7567 422.024 50.2974C419.262 51.838 416.04 52.6087 412.358 52.6087ZM412.358 41.5425C414.34 41.5425 415.969 40.9004 417.244 39.6162C418.518 38.3319 419.156 36.6396 419.156 34.5383C419.156 32.4371 418.518 30.744 417.244 29.4605C415.969 28.1762 414.34 27.5341 412.358 27.5341C410.423 27.5341 408.817 28.1762 407.542 29.4605C406.268 30.744 405.63 32.4371 405.63 34.5383C405.63 36.5925 406.268 38.2736 407.542 39.581C408.817 40.8884 410.423 41.5425 412.358 41.5425Z" fill="#F2A531"/>
<path d="M443.728 52.0485C441.841 52.0485 440.07 51.6861 438.418 50.9625C436.766 50.2389 435.432 49.06 434.417 47.4252C433.402 45.7912 432.894 43.6196 432.894 40.9114V4H444.295V36.9197C444.295 38.6935 444.59 39.826 445.18 40.3164C445.771 40.8067 446.585 41.0519 447.624 41.0519V51.7683C447.199 51.8617 446.597 51.9312 445.817 51.9783C445.039 52.0247 444.342 52.0485 443.728 52.0485Z" fill="#F2A531"/>
</svg>
